<svg width="110" height="50" viewBox="0 0 110 50" fill="none" xmlns="http://www.w3.org/2000/svg">
<g id="Crown">
<g id="Group">
<path id="Vector" d="M67.2875 42.1672C57.6535 32.5332 57.6535 16.8592 67.2875 7.22524C76.9215 -2.40874 92.5954 -2.40874 102.229 7.22524C111.863 16.8592 111.863 32.5332 102.229 42.1672C92.5954 51.8012 76.9215 51.8012 67.2875 42.1672ZM101.065 8.38966C92.073 -0.602368 77.4439 -0.602368 68.4543 8.38966C59.4622 17.3817 59.4622 32.0107 68.4543 41.0004C77.4463 49.9925 92.0753 49.9925 101.065 41.0004C110.057 32.0084 110.057 17.3794 101.065 8.38966Z" fill="white"/>
<g id="Group_2">
<path id="Vector_2" d="M101.334 19.4553C101.247 19.3686 101.177 19.2585 101.137 19.1366C100.282 16.6063 98.8857 14.3642 96.988 12.4664C95.0926 10.571 92.8481 9.17465 90.3178 8.31715C89.9827 8.20235 89.7578 7.89075 89.7578 7.53697V1.53213C89.7578 1.2791 89.875 1.04012 90.0741 0.883148C90.2756 0.726174 90.5357 0.672291 90.7793 0.733206C95.1043 1.81562 99.0638 4.06011 102.227 7.22536C105.39 10.3906 107.634 14.3478 108.717 18.6728C108.777 18.9188 108.721 19.1788 108.567 19.3803C108.41 19.5818 108.171 19.6966 107.918 19.6966H101.913C101.688 19.6966 101.482 19.6052 101.329 19.4529L101.334 19.4553ZM98.1524 11.302C100.088 13.2372 101.547 15.5052 102.498 18.0495H106.842C105.75 14.4134 103.766 11.0911 101.065 8.38978C98.3633 5.68843 95.041 3.704 91.4072 2.61455V6.95828C93.9516 7.90715 96.2195 9.36677 98.1547 11.3043L98.1524 11.302Z" fill="white"/>
<path id="Vector_3" d="M67.2873 42.1674C64.1244 39.0045 61.8775 35.045 60.7951 30.72C60.7342 30.474 60.7904 30.2139 60.945 30.0148C61.102 29.8133 61.341 29.6985 61.594 29.6985H67.5989C67.9526 29.6985 68.2666 29.9234 68.379 30.2584C69.2342 32.7888 70.6306 35.0309 72.5283 36.9287C74.4237 38.8241 76.6682 40.2204 79.1985 41.0779C79.5336 41.1904 79.7585 41.5043 79.7585 41.8581V47.863C79.7585 48.116 79.6413 48.355 79.4422 48.5119C79.2407 48.6689 78.9806 48.7228 78.7346 48.6619C74.4096 47.5795 70.4525 45.335 67.2873 42.1721V42.1674ZM62.6741 31.3432C63.7659 34.9794 65.7503 38.3016 68.4517 41.003C71.153 43.7043 74.4753 45.6888 78.1114 46.7805V42.4368C75.5671 41.4879 73.2991 40.0283 71.3639 38.0931C69.4287 36.1579 67.969 33.8899 67.0178 31.3455H62.6741V31.3432Z" fill="white"/>
<path id="Vector_4" d="M89.9991 48.4414C89.8445 48.2868 89.7578 48.0783 89.7578 47.8581V41.8532C89.7578 41.4994 89.9827 41.1855 90.3178 41.073C92.8481 40.2179 95.0902 38.8215 96.988 36.9238C98.8857 35.026 100.28 32.7839 101.137 30.2535C101.25 29.9185 101.564 29.6936 101.917 29.6936H107.922C108.175 29.6936 108.414 29.8107 108.571 30.0099C108.728 30.209 108.782 30.4714 108.721 30.7151C107.636 35.0401 105.392 38.9972 102.229 42.1625C99.0661 45.3277 95.1066 47.5722 90.7817 48.6546C90.5357 48.7156 90.2756 48.6593 90.0764 48.5047C90.0507 48.4813 90.0249 48.4602 90.0015 48.4368L89.9991 48.4414ZM91.4049 42.4343V46.778C95.041 45.6862 98.3633 43.7018 101.065 41.0004C103.766 38.2991 105.748 34.9768 106.842 31.3407H102.498C101.55 33.885 100.09 36.1506 98.1524 38.0882C96.2172 40.0234 93.9493 41.4854 91.4049 42.4343Z" fill="white"/>
<path id="Vector_5" d="M61.011 19.4552C60.9876 19.4317 60.9642 19.406 60.9454 19.3802C60.7884 19.181 60.7345 18.9186 60.7955 18.6726C61.8779 14.3476 64.1224 10.3881 67.2876 7.22524C70.4529 4.06233 74.41 1.8155 78.735 0.733082C78.981 0.672167 79.2411 0.728393 79.4402 0.883024C79.6394 1.04 79.7565 1.27898 79.7565 1.53201V7.53685C79.7565 7.89063 79.5316 8.20457 79.1966 8.31703C76.6662 9.17219 74.4241 10.5686 72.5263 12.4663C70.6309 14.3617 69.2346 16.6062 68.3771 19.1365C68.2646 19.4716 67.9507 19.6965 67.5969 19.6965H61.5921C61.3718 19.6965 61.1609 19.6098 61.0087 19.4575L61.011 19.4552ZM78.1095 2.61443C74.4733 3.70622 71.1511 5.69065 68.4497 8.39201C65.7483 11.0934 63.7663 14.4156 62.6721 18.0518H67.0158C67.9647 15.5074 69.4243 13.2418 71.3619 11.3042C73.2971 9.36899 75.5651 7.90937 78.1095 6.95816V2.61443Z" fill="white"/>
</g>
<path id="Vector_6" d="M98.1543 11.3019C90.7695 3.91713 78.7505 3.91479 71.3657 11.3019C63.9785 18.6891 63.9808 30.7058 71.3657 38.0906C78.7505 45.4754 90.7672 45.4777 98.1543 38.0906C105.541 30.7034 105.539 18.6867 98.1543 11.3019Z" fill="white"/>
<g id="Group_3">
<path id="Vector_7" d="M91.5895 31.4573L77.9822 31.5476C77.409 31.5514 76.9474 32.0191 76.9512 32.5923L76.9544 33.0773C76.9582 33.6505 77.426 34.1121 77.9992 34.1083L91.6064 34.018C92.1796 34.0142 92.6412 33.5465 92.6374 32.9733L92.6342 32.4883C92.6304 31.9151 92.1627 31.4535 91.5895 31.4573Z" fill="#110A1D"/>
<path id="Vector_8" d="M79.836 23.2437C79.6884 23.2437 79.5385 23.2109 79.4026 23.1453L78.3413 22.6322C77.8797 22.4073 77.6688 21.8614 77.8609 21.3858L78.3483 20.1722C78.4982 19.802 78.852 19.5607 79.2503 19.5583C79.4213 19.5583 79.59 19.6005 79.74 19.6872L81.0051 20.4088C81.2418 20.5424 81.4128 20.7743 81.4737 21.0414C81.5346 21.3085 81.4807 21.5896 81.3261 21.8146L80.6326 22.8197C80.4522 23.0821 80.1523 23.2414 79.8337 23.2414L79.836 23.2437Z" fill="#110A1D"/>
<path id="Vector_9" d="M89.6325 23.1783C89.3139 23.1783 89.0117 23.026 88.8289 22.7659L88.1425 21.7983C87.9831 21.5757 87.9269 21.2946 87.9832 21.0275C88.0394 20.7604 88.2081 20.5261 88.4447 20.3879L89.7497 19.6217C89.8973 19.5351 90.066 19.4882 90.237 19.4859C90.6353 19.4835 90.9938 19.7201 91.1484 20.088L91.6404 21.2665C91.8372 21.7397 91.6334 22.2903 91.1765 22.5199L90.066 23.0752C89.9324 23.1408 89.7825 23.1783 89.6349 23.1783H89.6325Z" fill="#110A1D"/>
<path id="Vector_10" d="M78.7671 30.6378C78.1697 30.6425 77.6331 30.2676 77.4293 29.7053L75.1591 23.4568C75.0138 23.5271 74.8592 23.581 74.7022 23.6208C74.5171 23.6677 74.3297 23.6911 74.1399 23.6911C74.0298 23.6911 73.922 23.6864 73.8166 23.6724C72.6334 23.5224 71.7361 22.508 71.7291 21.3131C71.7197 19.9917 72.788 18.9093 74.1094 18.8999C75.4308 18.8905 76.5132 19.9589 76.5203 21.2803C76.5203 21.5849 76.4687 21.8777 76.3609 22.1518C76.3024 22.3018 76.2298 22.4447 76.1454 22.5806L80.4634 24.6705L83.7669 19.8839C83.6286 19.8253 83.4951 19.7527 83.3685 19.666C83.1296 19.5044 82.9211 19.3029 82.7524 19.0662C82.4665 18.6633 82.3119 18.1877 82.3096 17.6956C82.3002 16.3743 83.3686 15.2918 84.6899 15.2825C84.7485 15.2825 84.8094 15.2825 84.868 15.2872C86.0512 15.3668 87.0071 16.3157 87.0938 17.4988C87.1336 18.0588 86.986 18.5953 86.6674 19.0522C86.4987 19.2912 86.2925 19.495 86.0558 19.6567C85.9317 19.7433 85.7981 19.816 85.6599 19.8745L89.022 24.6119L93.2696 22.4869C93.19 22.3346 93.1267 22.1753 93.0799 22.0089C93.0236 21.8074 92.9932 21.5966 92.9932 21.3834C92.9932 21.2873 92.9979 21.1913 93.0072 21.0975C93.1431 19.8933 94.1599 18.9796 95.3712 18.9725C96.6926 18.9632 97.775 20.0315 97.782 21.3529C97.7914 22.6134 96.8121 23.6724 95.5539 23.7591L95.404 23.7637C95.1603 23.7637 94.9214 23.7309 94.6894 23.6607C94.5395 23.6138 94.3942 23.5552 94.2583 23.4803L92.1263 29.6069C91.9318 30.1716 91.3976 30.5511 90.8002 30.5558L78.7671 30.6355V30.6378Z" fill="#110A1D"/>
</g>
<path id="Vector_11" d="M24.4957 0.0102689C24.9844 0.0102689 25.3755 0.406453 25.3755 0.890093C25.3755 1.37373 24.9793 1.76992 24.4957 1.76992C11.9622 1.76992 1.76461 11.9675 1.76461 24.501C1.76461 37.0344 11.9622 47.232 24.4957 47.232C24.9844 47.232 25.3755 47.6282 25.3755 48.1119C25.3755 48.5955 24.9793 48.9916 24.4957 48.9916C10.9898 48.9916 -0.000159258 38.0017 -0.000159258 24.4958C-0.000159258 10.9899 10.9898 0 24.4957 0V0.0102689Z" fill="white"/>
</g>
<g id="Group_4">
<path id="Vector_12" d="M25.0087 0.18887L84.1259 0.18887C84.6147 0.18887 85.0057 0.585054 85.0057 1.06869C85.0057 1.55233 84.6096 1.94849 84.1259 1.94849L25.0087 1.94849C24.5199 1.94849 24.1289 1.55233 24.1289 1.06869C24.1289 0.585054 24.5251 0.18887 25.0087 0.18887Z" fill="white"/>
</g>
<g id="Group_5">
<path id="Vector_13" d="M24.8798 47.4167L83.997 47.4167C84.4858 47.4167 84.8768 47.8128 84.8768 48.2964C84.8768 48.7801 84.4807 49.1763 83.997 49.1763L24.8798 49.1763C24.391 49.1763 24 48.7801 24 48.2964C24 47.8128 24.3962 47.4167 24.8798 47.4167Z" fill="white"/>
</g>
</g>
</svg>
