<svg width="100" class='svg-xl'  height="221" viewBox="0 0 100 221" fill="none" xmlns="http://www.w3.org/2000/svg">
<path d="M14.6173 206.26C-4.87243 186.77 -4.87243 155.061 14.6173 135.572C34.107 116.082 65.8157 116.082 85.3054 135.572C104.795 155.061 104.795 186.77 85.3054 206.26C65.8157 225.75 34.107 225.75 14.6173 206.26ZM82.9498 137.927C64.7588 119.736 35.164 119.736 16.9777 137.927C-1.21338 156.118 -1.21338 185.713 16.9777 203.899C35.1687 222.09 64.7635 222.09 82.9498 203.899C101.141 185.708 101.141 156.114 82.9498 137.927Z" fill="white"/>
<path d="M83.4931 160.313C83.3177 160.138 83.1755 159.915 83.0949 159.668C81.3649 154.55 78.54 150.014 74.7009 146.174C70.8664 142.34 66.3258 139.515 61.2069 137.78C60.5291 137.548 60.0741 136.918 60.0741 136.202V124.054C60.0741 123.542 60.3111 123.059 60.7139 122.741C61.1216 122.424 61.6477 122.315 62.1406 122.438C70.8901 124.628 78.9002 129.168 85.2989 135.572C91.6975 141.975 96.2382 149.98 98.4279 158.73C98.5512 159.228 98.4374 159.754 98.1246 160.161C97.807 160.569 97.3236 160.801 96.8117 160.801H84.6638C84.2087 160.801 83.7917 160.616 83.4836 160.308L83.4931 160.313ZM77.0565 143.819C80.9715 147.734 83.9244 152.322 85.8487 157.469H94.6362C92.4274 150.113 88.4129 143.392 82.948 137.927C77.4831 132.462 70.7622 128.448 63.4109 126.244V135.031C68.5582 136.951 73.1462 139.904 77.0612 143.824L77.0565 143.819Z" fill="white"/>
<path d="M14.616 206.26C8.21737 199.861 3.67197 191.851 1.48222 183.101C1.35899 182.604 1.47275 182.078 1.78557 181.675C2.10313 181.267 2.58656 181.035 3.09845 181.035H15.2464C15.9621 181.035 16.5972 181.49 16.8247 182.168C18.5547 187.287 21.3795 191.823 25.2187 195.662C29.0531 199.496 33.5938 202.321 38.7127 204.056C39.3905 204.283 39.8455 204.918 39.8455 205.634V217.782C39.8455 218.294 39.6085 218.777 39.2056 219.095C38.798 219.412 38.2719 219.521 37.7742 219.398C29.0247 217.208 21.0194 212.668 14.616 206.269V206.26ZM5.28348 184.362C7.49219 191.718 11.5067 198.439 16.9716 203.904C22.4365 209.369 29.1575 213.384 36.5135 215.592V206.805C31.3662 204.885 26.7781 201.932 22.8631 198.017C18.9481 194.102 15.9952 189.514 14.0709 184.367H5.28348V184.362Z" fill="white"/>
<path d="M60.5623 218.953C60.2495 218.64 60.0741 218.218 60.0741 217.773V205.625C60.0741 204.909 60.5291 204.274 61.2069 204.046C66.3258 202.316 70.8617 199.492 74.7009 195.652C78.54 191.813 81.3601 187.277 83.0949 182.158C83.3224 181.481 83.9575 181.026 84.6732 181.026H96.8211C97.333 181.026 97.8165 181.263 98.1341 181.665C98.4516 182.068 98.5606 182.599 98.4374 183.092C96.2429 191.842 91.7022 199.847 85.3036 206.25C78.905 212.654 70.8949 217.194 62.1454 219.384C61.6477 219.507 61.1216 219.394 60.7187 219.081C60.6666 219.033 60.6144 218.991 60.567 218.943L60.5623 218.953ZM63.4061 206.8V215.588C70.7622 213.379 77.4831 209.364 82.948 203.9C88.4129 198.435 92.4227 191.714 94.6361 184.358H85.8487C83.9291 189.505 80.9762 194.088 77.0565 198.008C73.1415 201.923 68.5535 204.881 63.4061 206.8Z" fill="white"/>
<path d="M1.91901 160.313C1.87161 160.266 1.82423 160.213 1.78631 160.161C1.46875 159.758 1.35973 159.228 1.48296 158.73C3.67271 149.98 8.21337 141.97 14.6167 135.572C21.0201 129.173 29.0254 124.628 37.775 122.438C38.2726 122.315 38.7988 122.428 39.2016 122.741C39.6045 123.059 39.8415 123.542 39.8415 124.054V136.202C39.8415 136.918 39.3865 137.553 38.7087 137.78C33.5898 139.51 29.0539 142.335 25.2147 146.174C21.3803 150.009 18.5554 154.549 16.8207 159.668C16.5932 160.346 15.9581 160.801 15.2424 160.801H3.09448C2.64895 160.801 2.22235 160.626 1.91427 160.318L1.91901 160.313ZM36.5095 126.244C29.1535 128.453 22.4325 132.467 16.9676 137.932C11.5027 143.397 7.49293 150.118 5.27948 157.474H14.0669C15.9865 152.327 18.9393 147.743 22.8591 143.824C26.7741 139.909 31.3622 136.956 36.5095 135.031V126.244Z" fill="white"/>
<path d="M77.0605 143.819C62.121 128.879 37.8062 128.874 22.8666 143.819C7.9223 158.763 7.92704 183.073 22.8666 198.013C37.8062 212.952 62.1162 212.957 77.0605 198.013C92.0049 183.068 92.0001 158.758 77.0605 143.819Z" fill="white"/>
<path d="M63.7796 184.593L36.2519 184.776C35.0923 184.783 34.1585 185.73 34.1661 186.889L34.1727 187.87C34.1803 189.03 35.1267 189.964 36.2863 189.956L63.8139 189.773C64.9735 189.766 65.9074 188.819 65.8997 187.66L65.8932 186.679C65.8855 185.519 64.9392 184.585 63.7796 184.593Z" fill="#110A1D"/>
<path d="M40.0023 167.977C39.7037 167.977 39.4004 167.911 39.1255 167.778L36.9784 166.74C36.0447 166.285 35.6181 165.181 36.0067 164.218L36.9926 161.763C37.296 161.014 38.0117 160.526 38.8174 160.521C39.1634 160.521 39.5047 160.607 39.808 160.782L42.3675 162.242C42.8462 162.512 43.1922 162.981 43.3154 163.522C43.4386 164.062 43.3296 164.631 43.0168 165.086L41.6139 167.119C41.2489 167.65 40.6422 167.972 39.9976 167.972L40.0023 167.977Z" fill="#110A1D"/>
<path d="M59.8211 167.844C59.1765 167.844 58.5651 167.536 58.1954 167.01L56.8066 165.053C56.4843 164.602 56.3706 164.034 56.4844 163.493C56.5981 162.953 56.9394 162.479 57.4181 162.199L60.0581 160.649C60.3567 160.474 60.698 160.379 61.044 160.375C61.8497 160.37 62.5749 160.849 62.8877 161.593L63.8831 163.977C64.2812 164.934 63.8689 166.048 62.9446 166.512L60.698 167.636C60.4278 167.768 60.1244 167.844 59.8258 167.844H59.8211Z" fill="#110A1D"/>
<path d="M37.8398 182.935C36.6311 182.945 35.5458 182.187 35.1334 181.049L30.5406 168.408C30.2468 168.55 29.9339 168.659 29.6164 168.74C29.2419 168.835 28.8627 168.882 28.4788 168.882C28.2561 168.882 28.038 168.873 27.8247 168.844C25.4312 168.541 23.6159 166.489 23.6017 164.071C23.5827 161.398 25.744 159.208 28.4172 159.189C31.0904 159.171 33.2802 161.332 33.2944 164.005C33.2944 164.621 33.1901 165.214 32.9721 165.768C32.8536 166.072 32.7067 166.361 32.536 166.636L41.2713 170.863L47.9544 161.18C47.6747 161.062 47.4045 160.915 47.1486 160.739C46.6651 160.412 46.2433 160.005 45.902 159.526C45.3238 158.711 45.011 157.749 45.0062 156.753C44.9873 154.08 47.1486 151.89 49.8218 151.871C49.9403 151.871 50.0635 151.871 50.182 151.881C52.5756 152.042 54.5094 153.962 54.6847 156.355C54.7653 157.488 54.4667 158.573 53.8221 159.498C53.4809 159.981 53.0637 160.393 52.585 160.72C52.3338 160.896 52.0637 161.043 51.784 161.161L58.5855 170.745L67.1786 166.446C67.0175 166.138 66.8895 165.816 66.7947 165.479C66.681 165.071 66.6194 164.645 66.6194 164.214C66.6194 164.019 66.6288 163.825 66.6478 163.635C66.9227 161.199 68.9797 159.351 71.4301 159.336C74.1033 159.317 76.2931 161.479 76.3073 164.152C76.3263 166.702 74.3451 168.844 71.7999 169.02L71.4965 169.029C71.0036 169.029 70.5202 168.963 70.0509 168.821C69.7476 168.726 69.4537 168.607 69.1788 168.456L64.8656 180.85C64.4723 181.992 63.3916 182.76 62.1829 182.77L37.8398 182.931V182.935Z" fill="#110A1D"/>
<path d="M99.4792 49.2317C99.4792 50.2141 98.6787 51 97.7013 51C96.724 51 95.9234 50.2037 95.9234 49.2317C95.9234 24.042 75.3166 3.54683 49.9896 3.54683C24.6626 3.54683 4.05575 24.042 4.05575 49.2317C4.05575 50.2141 3.25516 51 2.27784 51C1.30053 51 0.5 50.2037 0.5 49.2317C0.5 22.0876 22.7079 0 50 0C77.2921 0 99.5 22.0876 99.5 49.2317H99.4792Z" fill="white"/>
<path d="M99.5404 50.0401V169.635C99.5404 170.624 98.739 171.415 97.7605 171.415C96.7821 171.415 95.9807 170.614 95.9807 169.635V50.0401C95.9807 49.0513 96.7821 48.2603 97.7605 48.2603C98.739 48.2603 99.5404 49.0617 99.5404 50.0401Z" fill="white"/>
<path d="M3.99748 49.7799V169.375C3.99748 170.364 3.19606 171.155 2.21764 171.155C1.23923 171.155 0.437744 170.354 0.437744 169.375V49.7799C0.437744 48.791 1.23923 48 2.21764 48C3.19606 48 3.99748 48.8015 3.99748 49.7799Z" fill="white"/>
</svg>
